<svg id="visual" viewBox="0 0 900 450" width="900" height="450" xmlns="http://www.w3.org/2000/svg" xmlns:xlink="http://www.w3.org/1999/xlink" version="1.1"><g stroke-width="1" stroke-linejoin="bevel"><path d="M409.7 242L504.3 132.5L406.7 137.5Z" fill="#fcbe67" stroke="#fcbe67"></path><path d="M409.7 242L536.3 225L504.3 132.5Z" fill="#fdb048" stroke="#fdb048"></path><path d="M409.7 242L523.3 341.5L536.3 225Z" fill="#fbd295" stroke="#fbd295"></path><path d="M287.1 363.5L376.7 365.5L409.7 242Z" fill="#fcbe67" stroke="#fcbe67"></path><path d="M409.7 242L376.7 365.5L523.3 341.5Z" fill="#fea123" stroke="#fea123"></path><path d="M536.3 225L633.9 102.5L504.3 132.5Z" fill="#fcb758" stroke="#fcb758"></path><path d="M504.3 132.5L383.7 0L406.7 137.5Z" fill="#fcbe67" stroke="#fcbe67"></path><path d="M674.9 211L633.9 102.5L536.3 225Z" fill="#fcb758" stroke="#fcb758"></path><path d="M541.3 0L383.7 0L504.3 132.5Z" fill="#fcb758" stroke="#fcb758"></path><path d="M406.7 137.5L254.1 243L409.7 242Z" fill="#fda837" stroke="#fda837"></path><path d="M633.9 102.5L541.3 0L504.3 132.5Z" fill="#fe9902" stroke="#fe9902"></path><path d="M243.1 94.5L254.1 243L406.7 137.5Z" fill="#fcb758" stroke="#fcb758"></path><path d="M523.3 341.5L636.9 309.5L536.3 225Z" fill="#fcbe67" stroke="#fcbe67"></path><path d="M636.9 309.5L674.9 211L536.3 225Z" fill="#fbcb86" stroke="#fbcb86"></path><path d="M383.7 0L243.1 94.5L406.7 137.5Z" fill="#fbcb86" stroke="#fbcb86"></path><path d="M254.1 243L287.1 363.5L409.7 242Z" fill="#fbd8a4" stroke="#fbd8a4"></path><path d="M763.4 0L636.9 0L633.9 102.5Z" fill="#fdb048" stroke="#fdb048"></path><path d="M633.9 102.5L636.9 0L541.3 0Z" fill="#fcb758" stroke="#fcb758"></path><path d="M523.3 341.5L662.9 450L636.9 309.5Z" fill="#fda837" stroke="#fda837"></path><path d="M376.7 365.5L523.3 450L523.3 341.5Z" fill="#fda837" stroke="#fda837"></path><path d="M376.7 450L523.3 450L376.7 365.5Z" fill="#fdb048" stroke="#fdb048"></path><path d="M287.1 363.5L376.7 450L376.7 365.5Z" fill="#fcb758" stroke="#fcb758"></path><path d="M383.7 0L253.1 0L243.1 94.5Z" fill="#fcbe67" stroke="#fcbe67"></path><path d="M106.6 0L147.6 148.5L243.1 94.5Z" fill="#fdb048" stroke="#fdb048"></path><path d="M243.1 94.5L147.6 148.5L254.1 243Z" fill="#fda837" stroke="#fda837"></path><path d="M254.1 243L130.6 312.5L287.1 363.5Z" fill="#fcbe67" stroke="#fcbe67"></path><path d="M147.6 148.5L138.6 229L254.1 243Z" fill="#fcb758" stroke="#fcb758"></path><path d="M287.1 363.5L242.1 450L376.7 450Z" fill="#fcb758" stroke="#fcb758"></path><path d="M803.4 246L781.4 142.5L674.9 211Z" fill="#fbd8a4" stroke="#fbd8a4"></path><path d="M674.9 211L781.4 142.5L633.9 102.5Z" fill="#fcb758" stroke="#fcb758"></path><path d="M740.4 364.5L674.9 211L636.9 309.5Z" fill="#fbcb86" stroke="#fbcb86"></path><path d="M523.3 450L662.9 450L523.3 341.5Z" fill="#fbd8a4" stroke="#fbd8a4"></path><path d="M662.9 450L740.4 364.5L636.9 309.5Z" fill="#fbd8a4" stroke="#fbd8a4"></path><path d="M130.6 312.5L242.1 450L287.1 363.5Z" fill="#fda837" stroke="#fda837"></path><path d="M740.4 364.5L803.4 246L674.9 211Z" fill="#fda837" stroke="#fda837"></path><path d="M138.6 229L130.6 312.5L254.1 243Z" fill="#fcb758" stroke="#fcb758"></path><path d="M781.4 142.5L763.4 0L633.9 102.5Z" fill="#fadeb4" stroke="#fadeb4"></path><path d="M900 81.5L763.4 0L781.4 142.5Z" fill="#fbd295" stroke="#fbd295"></path><path d="M662.9 450L745.4 450L740.4 364.5Z" fill="#fcc576" stroke="#fcc576"></path><path d="M900 360.5L900 241L803.4 246Z" fill="#fcbe67" stroke="#fcbe67"></path><path d="M253.1 0L106.6 0L243.1 94.5Z" fill="#fcbe67" stroke="#fcbe67"></path><path d="M147.6 148.5L0 205L138.6 229Z" fill="#fda837" stroke="#fda837"></path><path d="M138.6 229L0 205L130.6 312.5Z" fill="#fda837" stroke="#fda837"></path><path d="M0 339.5L124.6 450L130.6 312.5Z" fill="#fe9902" stroke="#fe9902"></path><path d="M130.6 312.5L124.6 450L242.1 450Z" fill="#fe9902" stroke="#fe9902"></path><path d="M900 360.5L803.4 246L740.4 364.5Z" fill="#fcb758" stroke="#fcb758"></path><path d="M803.4 246L900 241L781.4 142.5Z" fill="#fcc576" stroke="#fcc576"></path><path d="M900 241L900 81.5L781.4 142.5Z" fill="#fdb048" stroke="#fdb048"></path><path d="M0 96.5L0 205L147.6 148.5Z" fill="#fea123" stroke="#fea123"></path><path d="M106.6 0L0 96.5L147.6 148.5Z" fill="#fdb048" stroke="#fdb048"></path><path d="M745.4 450L900 360.5L740.4 364.5Z" fill="#fcb758" stroke="#fcb758"></path><path d="M900 81.5L900 0L763.4 0Z" fill="#fadeb4" stroke="#fadeb4"></path><path d="M0 205L0 339.5L130.6 312.5Z" fill="#fcbe67" stroke="#fcbe67"></path><path d="M106.6 0L0 0L0 96.5Z" fill="#fda837" stroke="#fda837"></path><path d="M745.4 450L900 450L900 360.5Z" fill="#fcc576" stroke="#fcc576"></path><path d="M0 339.5L0 450L124.6 450Z" fill="#fea123" stroke="#fea123"></path></g></svg>